<svg width="19" height="19" viewBox="0 0 19 19" fill="none" xmlns="http://www.w3.org/2000/svg">
<path d="M16.0292 15.9838C16.3365 15.2986 16.4901 14.5363 16.4901 13.697C16.4901 12.2582 16.0975 11.0832 15.3123 10.1719C14.527 9.26066 13.237 8.40218 11.4421 7.59644L10.1521 7.02092C9.17989 6.5605 8.44138 6.03774 7.93658 5.45262C7.43178 4.86751 7.17938 4.08576 7.17938 3.10737C7.17938 2.14816 7.50657 1.38559 8.16094 0.819664C8.69388 0.358752 9.32603 0.0855303 10.0574 0C14.9657 0.323536 18.8459 4.37337 18.8459 9.32175C18.8459 11.9302 17.7677 14.2889 16.0292 15.9838Z" fill="white"/>
<path d="M5.8744 0.664275C5.36173 1.02402 4.93202 1.4547 4.58527 1.95632C4.01503 2.78124 3.72991 3.75963 3.72991 4.89149C3.72991 6.46458 4.1833 7.72594 5.09007 8.67555C5.99684 9.62516 7.25417 10.4645 8.86205 11.1935L10.0119 11.7114C11.0028 12.2102 11.7226 12.7234 12.1713 13.251C12.62 13.7785 12.8444 14.5123 12.8444 15.4523C12.8444 16.4499 12.5125 17.2652 11.8488 17.8983C11.5466 18.1865 11.195 18.4092 10.7939 18.5662C10.3464 18.6309 9.8886 18.6643 9.42294 18.6643C4.21879 18.6643 0 14.4815 0 9.32175C0 5.40658 2.42901 2.05389 5.8744 0.664275Z" fill="white"/>
</svg>
